# xmcd
#
# Track frame offsets:
#  150
#  21333
#  36480
#  57287
#  77536
#  96660
#  111806
#  129052
#  152673
#  172545
#  189566
#  210485
#  228481
#  241380
#  259816
#  281385
#  300434
#  313133
#  339542
#
# Disc length: 4656 seconds
#
# Revision: 0
# Processed by: cddbd v1.4PL0 Copyright (c) Steve Scherf et al.
# Submitted via: AltoMP3_Maker 3.0
#
DISCID=fb122e13
DTITLE=德德玛 - 红雨伞
DYEAR=1900
DGENRE=
TTITLE0=苍天般的阿拉善
TTITLE1=苏丽珂
TTITLE2=红雨伞
TTITLE3=草原的路
TTITLE4=草原夜色美
TTITLE5=我和草原有个约定
TTITLE6=美丽的草原我的家
TTITLE7=代钦塔拉草原
TTITLE8=初恋是一场冬夜里的雪
TTITLE9=前郭尔罗斯
TTITLE10=湖在歌唱
TTITLE11=致草原
TTITLE12=美丽的额济纳
TTITLE13=红雨伞（天狼乐队）
TTITLE14=牧人
TTITLE15=岁月中秋
TTITLE16=乡间的风
TTITLE17=边疆处处赛江南
TTITLE18=打起手鼓唱起歌
EXTD=
EXTT0=
EXTT1=
EXTT2=
EXTT3=
EXTT4=
EXTT5=
EXTT6=
EXTT7=
EXTT8=
EXTT9=
EXTT10=
EXTT11=
EXTT12=
EXTT13=
EXTT14=
EXTT15=
EXTT16=
EXTT17=
EXTT18=
PLAYORDER=
